<?xml version="1.0" encoding="UTF-8" standalone="no"?>
<svg
   xmlns:dc="http://purl.org/dc/elements/1.1/"
   xmlns:cc="http://creativecommons.org/ns#"
   xmlns:rdf="http://www.w3.org/1999/02/22-rdf-syntax-ns#"
   xmlns:svg="http://www.w3.org/2000/svg"
   xmlns="http://www.w3.org/2000/svg"
   id="svg8"
   version="1.1"
   viewBox="0 0 377.06009 42.587573"
   height="160.96091"
   width="1425.109">
  <defs
     id="defs2" />
  <metadata
     id="metadata5">
    <rdf:RDF>
      <cc:Work
         rdf:about="">
        <dc:format>image/svg+xml</dc:format>
        <dc:type
           rdf:resource="http://purl.org/dc/dcmitype/StillImage" />
        <dc:title></dc:title>
      </cc:Work>
    </rdf:RDF>
  </metadata>
  <g
     id="layer1"
     transform="translate(149.22053,-30.866922)">
    <g
       aria-label="hoshiの秘密基地"
       id="text864-9"
       style="font-style:normal;font-variant:normal;font-weight:normal;font-stretch:normal;font-size:50.8px;line-height:1.25;font-family:'851H-kktt';-inkscape-font-specification:'851H-kktt, Normal';font-variant-ligatures:normal;font-variant-caps:normal;font-variant-numeric:normal;font-variant-east-asian:normal;letter-spacing:0px;fill:#ffffff;stroke-width:0.0700042"
       transform="translate(-135.02482,167.05292)">
      <g
         id="g1509"
         style="font-style:normal;font-variant:normal;font-weight:normal;font-stretch:normal;font-size:50.8px;line-height:1.25;font-family:yosugara;-inkscape-font-specification:'yosugara, Normal';font-variant-ligatures:normal;font-variant-caps:normal;font-variant-numeric:normal;font-variant-east-asian:normal;letter-spacing:1.85208px;fill:#ffffff;stroke-width:0.264583"
         transform="translate(-148.92262,-20.410712)">
        <path
           style="font-style:normal;font-variant:normal;font-weight:normal;font-stretch:normal;font-size:50.8px;line-height:1.25;font-family:yosugara;-inkscape-font-specification:'yosugara, Normal';font-variant-ligatures:normal;font-variant-caps:normal;font-variant-numeric:normal;font-variant-east-asian:normal;letter-spacing:1.85208px;fill:#ffdc00;fill-opacity:1;stroke:none;stroke-width:1.32292;stroke-linecap:round;stroke-linejoin:bevel;paint-order:stroke fill markers"
           id="path947-6"
           transform="rotate(9.0893776,787.56395,1375.2985)"
           d="m 25.929928,1.7240848 c -0.155461,0.1121795 -1.741529,-0.6867239 -1.937406,-0.6821632 -0.195877,0.00456 -1.781406,0.8635774 -1.945785,0.7591375 -0.164379,-0.10444 0.35533,-1.8090612 0.294195,-1.99370859 -0.06114,-0.18464738 -1.406593,-1.35713661 -1.338934,-1.53862491 0.06766,-0.1814883 1.874469,-0.2434784 2.034401,-0.3468133 0.159931,-0.103335 0.860965,-1.7827426 1.051735,-1.7679023 0.19077,0.01484 0.45482,1.4653008 0.600931,1.6019669 0.146112,0.1366662 2.371219,0.1914994 2.437267,0.3683922 0.06605,0.1768927 -1.757639,1.40188832 -1.829673,1.58209944 -0.07203,0.18021113 0.78873,1.90543676 0.633269,2.01761626 z" />
        <g
           aria-label="hoshiの秘密基地"
           id="text864-9-7"
           style="font-style:normal;font-variant:normal;font-weight:normal;font-stretch:normal;font-size:50.8px;line-height:1.25;font-family:'851H-kktt';-inkscape-font-specification:'851H-kktt, Normal';font-variant-ligatures:normal;font-variant-caps:normal;font-variant-numeric:normal;font-variant-east-asian:normal;letter-spacing:0px;fill:#ffffff;stroke-width:0.0700042">
          <path
             d="m 153.76032,-74.709067 q -0.5457,-0.09922 -0.94257,-0.446484 -0.54571,-0.694531 -0.39688,-1.686719 0.79375,-4.812109 1.33945,-9.624218 0.59532,-4.81211 1.88516,-8.582422 h -0.0992 q -1.0914,0.347265 -2.23242,0.595312 -1.14102,0.198438 -2.38125,0.148828 h -2.6293 l -0.0992,0.04961 h -1.93476 l -0.0496,0.04961 h -4.11758 q -1.33945,4.067969 -2.38125,9.177734 -1.0418,5.109766 -3.12539,9.921875 l -0.19844,0.04961 q -0.29765,-0.744141 -0.34726,-1.63711 v -3.522265 q 0.99218,-8.235156 3.12539,-16.271875 2.18281,-8.086329 4.86172,-15.924609 0.49609,-0.39688 1.14101,-0.29766 0.59531,0.24805 0.79375,0.84336 v 0.94258 q -0.64492,3.32383 -1.53789,6.64766 -0.89297,3.27421 -1.73633,7.590231 h 0.69453 q 2.57969,-0.198437 4.41524,-0.297656 1.88516,-0.148828 4.51445,-0.198437 1.38906,0.148828 2.72852,0.496093 1.33945,0.297657 2.48047,1.091407 0.39687,0.79375 0.29765,1.835547 -0.49609,4.018359 -1.14101,8.979296 -0.59532,4.960938 -1.83555,9.723438 -0.44648,0.347265 -1.09141,0.347265 z"
             style="font-style:normal;font-variant:normal;font-weight:normal;font-stretch:normal;font-size:50.8px;font-family:'851H-kktt';-inkscape-font-specification:'851H-kktt, Normal';font-variant-ligatures:normal;font-variant-caps:normal;font-variant-numeric:normal;font-variant-east-asian:normal;stroke-width:0.0700042"
             id="path910" />
          <path
             d="m 165.07126,-75.205161 q -0.69453,0 -1.38906,-0.09922 -0.64492,-0.148828 -1.19063,-0.545703 -0.39687,-0.84336 -0.59531,-1.736328 -0.14883,-0.942579 -0.0992,-1.984375 0.54571,-3.819922 1.68672,-8.73125 1.19063,-4.911328 2.53008,-8.582422 0.44648,-0.396875 1.09141,-0.347266 l 0.89296,0.297657 q 1.98438,-0.496094 4.01836,-0.694532 2.0836,-0.198437 4.16719,-0.297656 h 2.03399 q 1.14101,0.198438 2.23242,0.496094 1.0914,0.248047 2.08359,0.79375 l 0.0992,0.248047 -0.19844,0.347265 q 0.54571,0.744141 0.4961,1.785938 -0.44649,4.117578 -1.09141,9.574609 -0.64492,5.407422 -2.43086,9.128125 l -0.5457,0.198437 -0.29766,-0.04961 q -2.23242,0.446484 -13.49375,0.198437 z m 12.7,-2.827734 v -0.694531 q 0.49609,-4.018359 1.33945,-8.681641 0.84336,-4.71289 1.88516,-8.284765 h -0.0992 q -0.74414,0.148828 -1.48828,0.347266 -0.69453,0.198437 -1.48828,0.248046 h -7.3918 l -2.43086,-0.148828 q -0.84336,3.869531 -1.88515,8.830469 -1.0418,4.960937 -1.88516,8.780859 h 0.14883 q 2.48047,-0.347265 10.16992,-0.446484 h 2.57969 z"
             style="font-style:normal;font-variant:normal;font-weight:normal;font-stretch:normal;font-size:50.8px;font-family:'851H-kktt';-inkscape-font-specification:'851H-kktt, Normal';font-variant-ligatures:normal;font-variant-caps:normal;font-variant-numeric:normal;font-variant-east-asian:normal;stroke-width:0.0700042"
             id="path912" />
          <path
             d="m 190.37204,-75.105942 q -0.99219,0 -1.73633,-0.496094 -0.49609,-0.446484 -0.44648,-1.141015 0.0992,-0.396875 0.44648,-0.694531 1.43868,-0.545703 3.07579,-0.595313 1.68671,-0.09922 3.32382,-0.198437 h 2.87735 l 0.0496,-0.04961 h 2.1332 q 1.0418,0 1.93476,0.396875 0.29766,-1.785937 0.79375,-3.96875 0.4961,-2.182812 0.89297,-3.91914 l -1.28984,-0.04961 h -6.94531 l -0.0496,-0.04961 h -2.1332 q -0.89297,-0.04961 -1.78594,-0.09922 -0.84336,-0.09922 -1.53789,-0.595312 -0.19844,-0.644922 -0.39688,-1.289844 -0.14883,-0.644922 -0.19844,-1.339453 0.14883,-1.736328 0.4961,-3.423047 0.39687,-1.686719 0.94258,-3.274219 -0.19844,-0.297656 -0.14883,-0.694531 l 0.34726,-0.545703 q 1.63711,-0.644922 3.42305,-0.744141 1.78594,-0.148828 3.62149,-0.297656 h 4.31601 q 0.89297,0 1.68672,0.198438 0.79375,0.198437 1.48828,0.644922 l 0.0992,-0.148829 q 0.34726,-0.347265 0.84336,-0.347265 l 0.49609,0.297656 q 0.44649,0.892969 0.34727,1.984375 -0.0496,1.041797 -0.14883,2.033984 -0.0496,0.992188 -0.79375,1.785938 -0.44648,0.446484 -1.14102,0.396875 -0.64492,-0.347266 -0.89296,-1.041797 -0.14883,-0.644922 -0.0992,-1.339453 l 0.39687,-1.686719 h -0.0992 q -1.04179,0.297656 -2.23242,0.248047 l -1.98437,-0.09922 h -1.98438 l -0.0496,-0.04961 h -5.40742 q -0.0992,1.785937 -0.24805,3.571875 -0.14882,1.736328 -0.49609,3.423047 h 0.29766 q 1.93476,-0.248047 3.86953,-0.347266 1.98437,-0.09922 3.96875,-0.198437 h 3.37343 q 0.74414,0 1.33946,0.248046 0.64492,0.248047 1.19062,0.744141 0.29766,0.297656 0.29766,0.744141 -0.19844,0.347265 -0.19844,0.79375 l 0.0496,1.091406 q -0.44648,2.778125 -0.79375,5.109765 -0.29766,2.282032 -1.24023,4.216797 -0.4961,0.545703 -1.24024,0.545703 l -0.44648,-0.248047 -0.24805,-0.198437 q -0.99219,0.545703 -2.18281,0.595312 h -2.23242 l -0.0496,0.04961 h -3.77032 l -0.0496,0.04961 z"
             style="font-style:normal;font-variant:normal;font-weight:normal;font-stretch:normal;font-size:50.8px;font-family:'851H-kktt';-inkscape-font-specification:'851H-kktt, Normal';font-variant-ligatures:normal;font-variant-caps:normal;font-variant-numeric:normal;font-variant-east-asian:normal;stroke-width:0.0700042"
             id="path914" />
          <path
             d="m 229.96032,-74.709067 q -0.5457,-0.09922 -0.94258,-0.446484 -0.5457,-0.694531 -0.39687,-1.686719 0.79375,-4.812109 1.33945,-9.624218 0.59531,-4.81211 1.88516,-8.582422 h -0.0992 q -1.09141,0.347265 -2.23242,0.595312 -1.14102,0.198438 -2.38125,0.148828 h -2.6293 l -0.0992,0.04961 h -1.93476 l -0.0496,0.04961 h -4.11758 q -1.33946,4.067969 -2.38125,9.177734 -1.0418,5.109766 -3.12539,9.921875 l -0.19844,0.04961 q -0.29766,-0.744141 -0.34727,-1.63711 v -3.522265 q 0.99219,-8.235156 3.12539,-16.271875 2.18282,-8.086329 4.86172,-15.924609 0.4961,-0.39688 1.14102,-0.29766 0.59531,0.24805 0.79375,0.84336 v 0.94258 q -0.64492,3.32383 -1.53789,6.64766 -0.89297,3.27421 -1.73633,7.590231 h 0.69453 q 2.57969,-0.198437 4.41524,-0.297656 1.88515,-0.148828 4.51445,-0.198437 1.38906,0.148828 2.72851,0.496093 1.33946,0.297657 2.48047,1.091407 0.39688,0.79375 0.29766,1.835547 -0.49609,4.018359 -1.14102,8.979296 -0.59531,4.960938 -1.83554,9.723438 -0.44649,0.347265 -1.09141,0.347265 z"
             style="font-style:normal;font-variant:normal;font-weight:normal;font-stretch:normal;font-size:50.8px;font-family:'851H-kktt';-inkscape-font-specification:'851H-kktt, Normal';font-variant-ligatures:normal;font-variant-caps:normal;font-variant-numeric:normal;font-variant-east-asian:normal;stroke-width:0.0700042"
             id="path916" />
          <path
             d="m 245.7361,-75.205161 c -0.39687,-0.06615 -0.7276,-0.264584 -0.99218,-0.595312 -0.19844,-0.297656 -0.29766,-0.628385 -0.29766,-0.992187 0.59531,-3.075781 1.17409,-6.416146 1.73633,-10.021094 0.56224,-3.604948 1.43867,-6.879167 2.62929,-9.822656 0.26459,-0.132292 0.54571,-0.181901 0.84336,-0.148828 l 0.54571,0.446484 c 0.19843,0.562239 0.28111,1.190625 0.24804,1.885156 -0.39687,2.94349 -0.87643,6.151563 -1.43867,9.624219 -0.52917,3.439583 -1.25677,6.548437 -2.18281,9.326562 -0.33073,0.231511 -0.69453,0.330729 -1.09141,0.297656 z"
             style="font-style:normal;font-variant:normal;font-weight:normal;font-stretch:normal;font-size:50.8px;font-family:'851H-kktt';-inkscape-font-specification:'851H-kktt, Normal';font-variant-ligatures:normal;font-variant-caps:normal;font-variant-numeric:normal;font-variant-east-asian:normal;stroke-width:0.0700042"
             id="path918" />
          <path
             d="m 297.67712,-75.403598 -0.84336,-0.446484 q -0.59531,-0.892969 -0.39687,-2.133203 0.64492,-5.506641 1.73632,-11.90625 1.09141,-6.449219 2.18282,-12.700005 -1.53789,-0.0992 -3.12539,-0.14882 -1.53789,-0.0992 -7.54063,-0.14883 -1.09141,6.449217 -2.43086,13.146483 -1.28984,6.647656 -4.11758,12.501562 l -0.24804,0.09922 -0.34727,0.595312 q -0.74414,0.744141 -1.83555,0.79375 -1.04179,0 -2.1332,0 l -0.0496,-0.04961 h -3.42304 q -1.19063,-0.04961 -2.38125,-0.09922 -1.14102,-0.09922 -2.0836,-0.74414 -0.34726,-0.446485 -0.24805,-1.041797 l 0.29766,-0.644922 q -0.14883,-0.744141 -0.14883,-1.537891 0,-0.843359 -0.0496,-1.637109 1.19063,-5.853906 2.33164,-11.955859 1.19063,-6.101953 3.42305,-11.608589 l 0.64492,-0.19844 0.59532,0.24805 q 2.62929,-0.54571 5.3082,-0.64493 2.72851,-0.14882 5.50664,-0.24804 h 2.18281 l 0.0496,-0.0496 5.75469,0.0496 q 1.48828,0.0992 2.97656,0.14882 1.53789,0 2.77813,0.79375 0.79375,0.69454 0.89296,1.68672 0.0992,0.99219 0.0496,2.03399 -0.84336,6.498825 -1.98437,12.799216 -1.14102,6.250781 -2.03399,12.65039 -0.5457,0.446484 -1.28984,0.396876 z m -15.3293,-2.877344 v -0.545703 l -0.0496,-1.53789 0.0496,-0.694532 -0.0496,-0.79375 q 1.14102,-5.159375 2.33164,-10.517187 1.19063,-5.357812 2.43086,-10.517186 h -7.49101 l -1.93477,-0.14883 q -1.04179,6.002735 -2.18281,12.303125 -1.09141,6.250781 -3.02617,12.005469 h 0.24805 l 1.14101,-0.09922 h 3.77031 l 0.59532,-0.04961 1.28984,0.04961 0.59531,-0.04961 q 1.28985,-0.09922 2.23242,0.644922 z"
             style="font-style:normal;font-variant:normal;font-weight:normal;font-stretch:normal;font-size:50.8px;font-family:'851H-kktt';-inkscape-font-specification:'851H-kktt, Normal';font-variant-ligatures:normal;font-variant-caps:normal;font-variant-numeric:normal;font-variant-east-asian:normal;stroke-width:0.0700042"
             id="path920" />
          <path
             d="m 324.91267,-74.510629 q -0.5457,-0.396875 -0.79375,-1.041797 l -0.19844,-0.992188 q 0.64493,-3.522265 1.33946,-7.044531 0.74414,-3.571875 1.48828,-7.09414 h -0.0992 q -2.03399,2.629297 -3.81992,5.50664 -1.78594,2.827735 -4.56407,4.81211 h -0.34726 q -0.19844,-0.446485 -0.14883,-0.992188 1.19063,-4.216797 3.91914,-7.739062 2.72852,-3.522266 5.45703,-6.945313 h -0.29765 l -0.84336,0.09922 h -1.98438 q -0.69453,-0.04961 -1.24023,-0.545703 -0.34727,-0.396875 -0.29766,-0.992188 l 0.29766,-0.545703 q 1.28984,-0.79375 2.82773,-0.892968 1.5875,-0.148829 3.12539,-0.347266 0.4961,-1.934764 1.0418,-3.819924 0.59531,-1.93476 1.24023,-3.81992 h -0.0992 q -1.0914,0.34726 -2.18281,0.74414 -1.0914,0.39687 -2.33164,0.44648 -0.74414,-0.14882 -1.33945,-0.64492 -0.24805,-0.29765 -0.19844,-0.74414 0.29766,-0.64492 0.89297,-1.19062 2.77813,-0.99219 5.65547,-1.83555 2.87734,-0.84336 5.8043,-1.24023 l 0.5457,0.24804 q 0.34726,0.39688 0.24805,0.94258 l -0.39688,0.5457 q -0.99219,0.54571 -1.98437,0.99219 -0.99219,0.39688 -2.03399,0.79375 v 0.19844 l 0.0496,1.0418 q -0.34727,1.83554 -0.84336,3.62148 -0.44648,1.78594 -0.84336,3.571876 h 1.14102 l 2.57968,-0.09922 q 0.89297,0.04961 1.5379,0.644922 0.44648,0.496094 0.34726,1.190625 l -0.5457,0.79375 q -1.28985,0.545703 -2.82774,0.496094 -1.53789,-0.04961 -2.97656,0.148828 l -0.24805,0.992187 q 0.84336,1.537891 1.48829,3.175 0.69453,1.63711 0.79375,3.472656 0,1.289844 -0.4961,2.331641 l -0.34726,0.04961 q -0.59532,-0.496093 -1.09141,-1.091406 -0.44648,-0.644922 -0.84336,-1.289844 l -0.5457,-1.637109 h -0.0992 q -0.89297,3.770313 -1.5875,7.639844 -0.69453,3.819922 -1.93477,7.441406 -0.5457,0.644922 -1.38906,0.644922 z m 25.25117,-0.148828 -0.0496,-0.04961 h -2.53008 l -0.0496,-0.04961 h -3.37344 l -0.0496,0.04961 h -4.06797 l -0.39688,-0.09922 -0.69453,0.04961 -0.64492,-0.396875 q -0.44648,-0.595313 -0.49609,-1.339453 l 1.38906,-6.548438 h -0.0496 q -0.94258,0.744141 -1.93476,1.488282 -0.94258,0.694531 -1.98438,1.240234 -0.34727,1.190625 -0.69453,2.430859 -0.29766,1.240235 -0.99219,2.331641 -0.5457,0.396875 -1.24023,0.347265 -0.54571,-0.09922 -0.94258,-0.545703 -0.44649,-0.545703 -0.34727,-1.289843 1.33946,-4.266407 2.67891,-8.532813 1.33945,-4.316015 3.52227,-8.284765 0.34726,-0.297656 0.79375,-0.297656 l 0.59531,0.347265 q 0.34726,0.694531 0.24804,1.537891 -0.49609,2.133203 -1.19062,4.266406 -0.69453,2.133203 -1.09141,3.472656 h 0.0496 q 1.33946,-0.942578 4.11758,-4.266406 1.0418,-8.433594 3.27422,-12.89844 0.39687,-0.34726 0.99219,-0.24804 0.44648,0.14882 0.64492,0.59531 l 0.0496,1.14101 q -0.34727,1.736332 -0.69453,3.522269 -0.29766,1.736329 -0.54571,3.571875 h 0.0496 l 0.74414,-0.892968 h 0.0992 v -0.09922 h 0.0992 q 0.74414,-0.892969 1.5875,-1.736328 0.84336,-0.892969 1.68672,-1.785938 l 0.14883,-0.04961 0.0992,-0.198438 0.14883,-0.04961 0.29765,-0.396875 0.14883,-0.04961 0.0496,-0.148828 0.24805,-0.248047 h 0.0992 l 0.24805,-0.347266 1.63711,-1.488286 0.0496,-0.14883 q 1.09141,-0.99219 2.18281,-1.98437 1.09141,-1.0418 2.48047,-1.33946 l 0.44649,0.29766 0.19843,0.64492 q -1.48828,2.48047 -3.57187,4.613679 -2.03399,2.133203 -4.01836,4.365625 l -1.24024,1.389062 -2.97656,3.274219 h -0.0992 l -0.74414,0.942578 h -0.0992 l -1.19062,1.389062 q -1.24024,6.895703 -2.03399,9.673828 h 0.29766 q 0.99219,-0.198437 2.03399,-0.248047 1.0914,-0.04961 2.1332,-0.09922 h 2.18281 l 0.0496,0.04961 h 2.48047 q 0.89297,-0.04961 1.5875,0.496094 0.49609,0.496094 0.49609,1.240234 -0.0992,0.595313 -0.64492,1.041797 -0.74414,0.446484 -1.68672,0.347266 z m 3.57188,-5.705078 q -0.44649,-0.09922 -0.74414,-0.496094 -0.59532,-1.686719 -0.59532,-3.571875 0,-1.934766 -0.0992,-3.770313 v -3.522265 q -0.0496,-1.240235 0.59531,-2.282031 0.29765,-0.198438 0.74414,-0.198438 l 0.49609,0.248047 q 1.19063,2.778125 1.24024,5.804297 0.0496,3.026172 0.24804,6.002734 0,0.892969 -0.69453,1.537891 -0.49609,0.347265 -1.19062,0.248047 z m -4.7625,-19.992575 -0.84336,-0.44649 q -0.54571,-2.38125 -0.84336,-4.7625 -0.24805,-2.43086 -0.39688,-4.86172 0.0496,-0.69453 0.54571,-1.24023 0.39687,-0.24805 0.94257,-0.19844 l 0.59532,0.39688 q 0.74414,2.33164 1.19062,4.71289 0.4961,2.33164 0.59531,4.81211 -0.0992,0.74414 -0.64492,1.28984 -0.49609,0.34727 -1.14101,0.29766 z"
             style="font-style:normal;font-variant:normal;font-weight:normal;font-stretch:normal;font-size:50.8px;font-family:'851H-kktt';-inkscape-font-specification:'851H-kktt, Normal';font-variant-ligatures:normal;font-variant-caps:normal;font-variant-numeric:normal;font-variant-east-asian:normal;stroke-width:0.0700042"
             id="path922" />
          <path
             d="m 373.43063,-74.758676 q -1.0418,-0.04961 -2.13321,-0.09922 -1.04179,-0.04961 -1.88515,-0.545703 -0.59531,-0.694531 -0.4961,-1.686719 0.94258,-2.678906 1.68672,-5.457031 0.79375,-2.778125 2.18282,-5.308203 0.44648,-0.347266 1.04179,-0.297656 l 0.59531,0.396875 q 0.29766,0.496094 0.29766,1.091406 -0.34726,2.331641 -0.99219,4.613672 -0.64492,2.232422 -1.38906,4.464844 h 0.64492 l 3.47266,-0.198438 h 3.42305 l 0.0496,-0.04961 h 2.23242 q 0.59531,-2.926953 1.24023,-5.853907 0.64492,-2.976562 2.1332,-5.655468 0.39688,-0.446485 1.09141,-0.347266 l 0.5457,0.496094 q 0.14883,0.694531 0.0992,1.488281 l -1.88515,9.822656 h 1.78593 l 5.10977,-0.198437 h 2.57969 q 0.59531,0.09922 1.0914,0.396875 0.4961,-2.678906 0.99219,-5.407422 0.49609,-2.728516 1.88516,-5.159375 0.39687,-0.297656 0.94258,-0.248047 0.44648,0.198438 0.64492,0.644922 l 0.0992,1.289844 q -0.4961,2.827734 -0.89297,5.754687 -0.39688,2.877344 -1.38907,5.55625 -0.49609,0.446484 -1.24023,0.396875 -0.49609,-0.09922 -0.89297,-0.496094 l -0.19844,-0.148828 q -1.98437,0.744141 -22.47304,0.744141 z m 0.0496,-15.825391 q -0.44649,0 -0.79375,-0.297656 l -0.0992,-0.496094 q 0.19844,-0.545703 0.64492,-0.992187 0.44648,-0.496094 0.84336,-1.041797 1.83555,-1.190625 3.7207,-2.232422 1.93477,-1.041797 3.86953,-2.133203 0.39688,-1.389062 0.69453,-2.827734 0.34727,-1.48828 1.14102,-2.72852 0.39688,-0.24804 0.89297,-0.19843 l 0.59531,0.39687 q 0.39688,0.79375 0.24805,1.78594 l -0.24805,1.835546 h 0.0992 l 2.87734,-1.438676 v -0.0992 q -0.79375,-0.74415 -1.43867,-1.5875 -0.64492,-0.89297 -1.19062,-1.78594 l -0.14883,-0.89297 0.44648,-0.84336 q 0.44649,-0.34727 1.0418,-0.34727 0.74414,0.0992 1.24023,0.74414 0.64493,0.89297 1.43868,1.73633 0.79375,0.84336 0.84336,1.98438 h 0.0992 q 1.63711,-0.74414 3.27422,-1.43867 1.63711,-0.74414 3.42305,-1.0418 l 0.59531,0.24805 q 0.29766,0.29765 0.19844,0.74414 -1.0418,1.24023 -2.48047,2.03398 -1.43867,0.74414 -2.82773,1.537892 l -8.23516,4.316015 -0.5457,2.38125 h 0.19844 q 1.73632,-0.347265 3.52226,-0.446484 1.83555,-0.148828 3.62149,-0.198438 h 2.48046 l 0.0496,-0.04961 h 4.41524 q 1.14101,0.248047 2.1332,0.992187 l 0.14883,0.545704 -0.49609,0.644921 q -0.64493,0.496094 -1.43868,0.744141 -0.74414,0.198438 -1.5875,0.198438 h -3.47265 l -0.0496,0.04961 h -5.55625 l -0.0496,0.04961 h -4.31602 l -1.04179,-0.248047 -0.69454,0.248047 -0.49609,-0.347265 q -0.49609,-0.79375 -0.5457,-1.785938 l 0.0992,-0.74414 h -0.0992 q -1.68672,0.992187 -3.37344,1.984375 -1.68672,0.942578 -3.67109,1.041796 z m -2.97657,-3.323828 -0.49609,-0.347265 q -0.29766,-0.644922 -0.24805,-1.389063 0.19844,-0.644922 0.64493,-1.141015 0.44648,-0.545703 0.94257,-1.041797 l 0.14883,-0.04961 1.98438,-2.083593 q 0.64492,-0.595312 1.28984,-1.190622 0.64492,-0.59532 1.48828,-0.69453 l 0.39688,0.34726 0.0496,0.49609 q -0.69454,1.835552 -1.93477,3.472661 -1.24023,1.637109 -2.53008,3.175 -0.74414,0.545703 -1.73633,0.446484 z m 32.89102,-1.488281 q -2.08359,-0.545703 -4.16719,-0.992187 -2.03398,-0.496094 -3.91914,-1.488282 l -0.19844,-0.644921 0.34727,-0.644922 q 0.79375,-0.396875 1.78594,-0.297657 2.03398,0.198438 4.01836,0.496094 2.03398,0.248047 3.77031,1.289844 0.39687,0.496094 0.29765,1.190625 -0.0992,0.446484 -0.5457,0.79375 -0.59531,0.347266 -1.38906,0.297656 z m -31.55156,-6.350004 q -0.44649,-0.24804 -0.59532,-0.74414 -0.34726,-0.79375 -0.24804,-1.73632 0.34726,-1.33946 0.79375,-2.6293 0.49609,-1.28985 1.38906,-2.38125 0.34727,-0.24805 0.79375,-0.19844 l 0.5457,0.29766 0.0496,0.14883 h 0.14883 q 1.78594,-0.44649 3.67109,-0.59532 1.88516,-0.14883 3.81993,-0.24804 h 2.38125 l 0.0496,-0.0496 h 3.81992 q 0.24804,-1.14102 0.64492,-2.23242 0.39687,-1.09141 1.09141,-2.03399 0.39687,-0.34726 0.94257,-0.29766 0.44649,0.14883 0.64493,0.59532 0.19843,0.59531 0.14882,1.33945 l -0.34726,2.6293 h 8.53281 l 0.0496,-0.0496 h 2.67891 l 0.89296,-0.0496 1.93477,0.19844 q 0.39688,-0.34727 0.94258,-0.29766 l 0.69453,0.34726 q 0.44648,0.54571 0.34727,1.28985 -0.19844,1.0418 -0.39688,2.1332 -0.14883,1.0418 -0.79375,1.93477 -0.59531,0.5457 -1.38906,0.5457 -0.69453,-0.44648 -0.94258,-1.19062 l -0.0496,-1.0418 0.29766,-1.0418 h -0.19844 l -2.48047,0.14883 h -22.82031 l -0.0496,0.0496 h -3.77031 l -0.34727,-0.0496 q -0.24805,1.14102 -0.49609,2.33164 -0.19844,1.19063 -0.94258,2.1332 -0.59531,0.74414 -1.43867,0.74414 z"
             style="font-style:normal;font-variant:normal;font-weight:normal;font-stretch:normal;font-size:50.8px;font-family:'851H-kktt';-inkscape-font-specification:'851H-kktt, Normal';font-variant-ligatures:normal;font-variant-caps:normal;font-variant-numeric:normal;font-variant-east-asian:normal;stroke-width:0.0700042"
             id="path924" />
          <path
             d="m 430.63024,-74.709067 q -0.74414,-0.04961 -1.48828,-0.148828 -0.69453,-0.09922 -1.24024,-0.644922 l -0.19843,-0.595312 0.39687,-0.694531 q 1.68672,-0.644922 3.52227,-0.694532 1.83554,-0.04961 3.67109,-0.09922 l 1.0418,-3.522266 h -1.24024 l -0.0496,0.04961 h -2.6789 q -1.24024,0.04961 -2.13321,-0.694531 -0.24804,-0.396875 -0.19843,-0.942578 l 0.39687,-0.644922 q 1.63711,-0.545703 3.42305,-0.644922 1.78594,-0.148828 3.57187,-0.248047 0.24805,-0.74414 0.4961,-1.488281 0.24804,-0.74414 0.59531,-1.438672 h -2.33164 l -0.0496,0.04961 h -2.57969 l -1.38906,0.04961 q -0.29766,1.041797 -1.09141,1.934766 -0.74414,0.843359 -1.48828,1.686718 h -0.0992 l -1.98437,2.083594 -0.19844,0.198438 q -1.38906,1.141015 -2.6789,2.530078 -1.28985,1.339453 -3.02618,1.637109 l -0.69453,-0.396875 q -0.39687,-0.545703 -0.34726,-1.289844 0.29765,-0.892968 1.14101,-1.5875 l 3.96875,-3.373437 v -0.09922 q 0.99219,-0.843359 1.93477,-1.637109 0.99219,-0.84336 1.93476,-1.63711 H 429.142 l -4.2168,0.148829 q -1.14101,0.04961 -1.93476,-0.644922 -0.24805,-0.297657 -0.19844,-0.744141 l 0.39687,-0.595312 q 1.5875,-0.595313 3.27422,-0.744141 1.73633,-0.148828 3.47266,-0.248047 1.0418,-3.96875 2.03398,-7.9375 0.99219,-4.018363 1.88516,-8.036713 h -2.18281 q -0.89297,-0.0496 -1.78594,-0.14883 -0.89297,-0.0992 -1.5875,-0.59532 l -0.24805,-0.69453 0.29766,-0.5457 q 1.43867,-0.69453 3.07578,-0.79375 1.68672,-0.0992 3.32383,-0.19844 0.34726,-1.28984 0.79375,-2.53007 0.49609,-1.28985 1.38906,-2.38125 l 0.74414,-0.24805 0.59531,0.34726 q 0.29766,0.74414 0.19844,1.68672 l -0.59531,2.97656 h 1.33945 l 6.05235,-0.24804 h 2.18281 l 0.0496,-0.0496 h 2.1332 q 0.34727,-1.09141 0.69453,-2.18281 0.34727,-1.09141 1.09141,-2.03399 l 0.59531,-0.19844 q 0.34727,0.0496 0.59531,0.39688 0.34727,0.74414 0.29766,1.68672 l -0.24805,2.18281 0.0496,0.0496 h 2.03399 l 1.24023,-0.0496 q 0.74414,0.0496 1.28984,0.64492 0.34727,0.44649 0.29766,1.0418 -0.0992,0.49609 -0.49609,0.89297 -1.09141,0.5457 -2.43086,0.5457 -1.28985,0 -2.57969,0.0496 -0.79375,3.96875 -1.5875,7.937499 -0.74414,3.919141 -1.53789,7.9375 h 0.34726 l 4.66329,-0.198437 q 0.44648,0.09922 0.79375,0.496094 0.39687,0.496093 0.29765,1.240234 -0.0992,0.446484 -0.49609,0.79375 -1.24024,0.496094 -2.67891,0.496094 -1.43867,-0.04961 -2.82773,0.04961 v 0.09922 q 1.83554,2.133203 3.7207,4.316015 1.93477,2.133203 3.02617,4.663282 -0.0992,0.545703 -0.44648,0.942578 -0.44649,0.297656 -1.0418,0.297656 -0.79375,-0.148828 -1.38906,-0.79375 -1.83555,-2.232422 -3.62149,-4.514453 -1.73632,-2.331641 -3.07578,-4.861719 l -0.44648,-0.04961 -5.06016,0.148828 v 0.297656 l 0.0496,0.744141 -0.24804,1.835547 h 2.77812 l 1.5875,-0.04961 q 0.74414,0 1.24023,0.446485 0.4961,0.545703 0.44649,1.289843 l -0.49609,0.942578 q -0.94258,0.545704 -2.13321,0.446485 h -3.47265 l -0.89297,0.04961 -1.0418,3.571875 h 3.22461 l 4.11758,-0.248047 q 0.74414,0.09922 1.24023,0.644922 0.24805,0.396875 0.24805,0.942578 -0.0992,0.496094 -0.4961,0.84336 -1.04179,0.545703 -2.28203,0.545703 -1.24023,0.04961 -2.48046,0.148828 h -3.62149 l -0.0496,0.04961 z m 15.03164,-15.577343 q 0.34727,-0.942578 0.5457,-1.934766 0.19844,-0.992187 0.34727,-2.083594 h -0.0992 q -0.64492,0.09922 -1.33945,0.09922 -0.64492,0 -1.28985,0.04961 h -3.32382 l -0.0496,0.04961 h -3.175 l -0.0496,-0.04961 h -2.03399 l -0.89297,-0.04961 q -0.34726,1.091406 -0.64492,2.133203 -0.24805,1.041797 -0.49609,2.133203 h 0.89297 l 0.0496,-0.04961 h 2.03398 l 0.0496,-0.04961 h 2.6293 l 0.0496,-0.04961 h 2.97656 q 0.94258,-0.04961 1.88515,-0.04961 0.99219,-0.04961 1.93477,-0.148828 z m 1.43867,-6.746875 v -0.198438 l 0.59531,-2.926957 h -0.44648 l -5.40742,0.198442 h -4.01836 l -2.1332,-0.148832 -0.84336,3.571879 h 0.14882 q 2.13321,-0.347266 4.36563,-0.446485 2.23242,-0.09922 4.41523,-0.198437 h 2.82774 z m 1.19063,-6.002735 v -0.0992 l 0.64492,-3.02617 h -1.78594 l -1.93476,0.0992 h -2.18282 l -3.81992,0.14883 h -2.03398 l -0.14883,0.0496 -0.69453,3.22461 h 0.24804 q 2.6293,-0.24805 5.2586,-0.34727 2.6789,-0.14883 5.35781,-0.19844 l 1.0418,0.19844 z"
             style="font-style:normal;font-variant:normal;font-weight:normal;font-stretch:normal;font-size:50.8px;font-family:'851H-kktt';-inkscape-font-specification:'851H-kktt, Normal';font-variant-ligatures:normal;font-variant-caps:normal;font-variant-numeric:normal;font-variant-east-asian:normal;stroke-width:0.0700042"
             id="path926" />
          <path
             d="m 489.51656,-74.758676 q -1.09141,0.04961 -1.93477,-0.595313 -0.34727,-0.446484 -0.29766,-0.992187 l 0.34727,-0.892969 q -0.34727,-0.79375 -0.24805,-1.785937 0.64492,-4.564063 1.43867,-9.078516 0.84336,-4.564062 1.88516,-9.078515 h -0.14883 l -1.33945,0.148828 q -0.44649,-0.09922 -0.74414,-0.446485 -0.24805,-0.396875 -0.19844,-0.942578 l 0.44649,-0.644922 q 0.59531,-0.347265 1.28984,-0.545703 0.74414,-0.198437 1.38906,-0.396877 0.34727,-1.14101 0.69453,-2.28203 0.34727,-1.19062 1.09141,-2.18281 0.34726,-0.34727 0.89297,-0.29766 l 0.49609,0.34727 q 0.39688,0.74414 0.34727,1.63711 l -0.29766,2.03398 h 0.14883 l 3.57187,-0.79375 q 0.4961,-2.6293 1.19063,-5.20898 0.69453,-2.6293 1.88516,-5.10977 0.34726,-0.39687 0.89296,-0.29765 l 0.29766,0.14882 q 0.44648,0.79375 0.29766,1.83555 -0.24805,1.98438 -0.64493,3.96875 -0.39687,1.98438 -0.74414,3.96875 h 0.29766 q 1.53789,-0.29766 3.12539,-0.59531 1.5875,-0.34727 3.175,-0.44649 l 0.5457,0.14883 q 0.39688,-0.39687 1.0418,-0.29765 0.39688,0.14882 0.64492,0.5457 0.14883,0.79375 0.0992,1.68672 -0.79375,4.56406 -1.63711,9.227341 -0.79375,4.663281 -2.57969,8.929687 -0.34726,0.297657 -0.84335,0.297657 l -0.44649,-0.297657 q -0.64492,-0.942578 -0.59531,-2.182812 0.69453,-3.770313 1.48828,-7.540625 0.79375,-3.819922 1.68672,-7.540621 h -0.0992 l -6.44922,1.28984 q -0.79375,3.770312 -1.43867,7.639843 -0.59531,3.819922 -2.72852,7.14375 l -0.39687,0.148828 q -0.4961,-0.843359 -0.5457,-1.885156 0,-1.091406 -0.0496,-2.182812 0.39687,-2.530078 0.89296,-5.109766 0.54571,-2.579687 0.99219,-5.109765 h -0.39687 l -3.37344,0.644922 q -1.0418,4.960937 -1.98438,9.971484 -0.89296,5.010547 -1.73632,10.021093 h 0.44648 l 12.45195,-0.04961 q 1.14102,0.09922 2.18282,0.446484 1.0914,0.297657 2.03398,0.84336 l 0.0992,0.297656 q -1.0418,0.694531 -2.23242,1.041797 -1.14102,0.347265 -2.38125,0.446484 z m -19.24844,-5.55625 q -0.44649,-0.04961 -0.74414,-0.446484 -0.24805,-0.347266 -0.19844,-0.84336 l 0.29766,-0.545703 q 1.48828,-0.744141 3.07578,-1.141016 1.5875,-0.446484 3.27422,-0.843359 l 0.0496,-0.644922 -0.0496,-0.992187 2.38125,-12.352734 h -1.63711 l -0.29766,0.04961 q -0.74414,-0.04961 -1.53789,-0.04961 -0.79375,0 -1.43867,-0.347266 -0.34727,-0.347266 -0.24805,-0.892969 0.29766,-0.595312 0.94258,-0.793754 1.14101,-0.34726 2.33164,-0.49609 1.24023,-0.19844 2.43086,-0.39687 0.5457,-2.77813 1.19062,-5.55625 0.64493,-2.82774 2.03399,-5.35782 0.34726,-0.24804 0.84336,-0.19843 l 0.5457,0.34726 q 0.39688,0.74414 0.29766,1.68672 -0.34727,2.23242 -0.84336,4.41523 -0.4961,2.18282 -0.84336,4.41524 h 0.5457 l 1.63711,-0.0496 q 1.19063,0.24805 2.1332,0.99219 l 0.0992,0.49609 q -0.64492,0.744141 -1.53789,1.141016 -0.79375,0.297656 -1.68672,0.347266 -0.89297,0.04961 -1.78593,0.09922 -0.69454,3.423047 -1.33946,6.846094 -0.59531,3.373438 -1.48828,6.746875 h 0.34727 q 0.99218,-0.248047 2.1332,-0.248047 0.64492,0.148828 1.33945,0.297656 0.69453,0.148828 1.24024,0.545703 l 0.0992,0.396875 -0.19844,0.297657 h -0.0992 v 0.09922 q -3.02617,1.63711 -6.49883,2.083594 -3.42304,0.396875 -6.79648,0.892969 z"
             style="font-style:normal;font-variant:normal;font-weight:normal;font-stretch:normal;font-size:50.8px;font-family:'851H-kktt';-inkscape-font-specification:'851H-kktt, Normal';font-variant-ligatures:normal;font-variant-caps:normal;font-variant-numeric:normal;font-variant-east-asian:normal;stroke-width:0.0700042"
             id="path928" />
        </g>
      </g>
    </g>
  </g>
</svg>
